HIERARCHY
ROOT pelvis
{
	OFFSET 0.003123 -0.351407 0.012037
	CHANNELS 6 Xposition Yposition Zposition Zrotation Yrotation Xrotation 
	JOINT left_hip
	{
		OFFSET 0.058189 -0.092763 -0.026001
		CHANNELS 3 Zrotation Yrotation Xrotation
		JOINT left_knee
		{
			OFFSET 0.054695 -0.378753 -0.009396
			CHANNELS 3 Zrotation Yrotation Xrotation
			JOINT left_ankle
			{
				OFFSET -0.043453 -0.403059 -0.031876
				CHANNELS 3 Zrotation Yrotation Xrotation
				JOINT left_foot
				{
					OFFSET 0.047257 -0.057997 0.118216
					CHANNELS 3 Zrotation Yrotation Xrotation
					End Site
					{
						OFFSET 0.000000 0.000000 0.000000
					}
				}
			}
		}
	}
	JOINT right_hip
	{
		OFFSET -0.063267 -0.103908 -0.021250
		CHANNELS 3 Zrotation Yrotation Xrotation
		JOINT right_knee
		{
			OFFSET -0.044210 -0.362380 -0.016824
			CHANNELS 3 Zrotation Yrotation Xrotation
			JOINT right_ankle
			{
				OFFSET 0.015417 -0.410728 -0.020192
				CHANNELS 3 Zrotation Yrotation Xrotation
				JOINT right_foot
				{
					OFFSET -0.038812 -0.058328 0.119049
					CHANNELS 3 Zrotation Yrotation Xrotation
					End Site
					{
						OFFSET 0.000000 0.000000 0.000000
					}
				}
			}
		}
	}
	JOINT spine_1
	{
		OFFSET -0.002763 0.109891 -0.027618
		CHANNELS 3 Zrotation Yrotation Xrotation
		JOINT spine_2
		{
			OFFSET 0.009448 0.131853 -0.005940
			CHANNELS 3 Zrotation Yrotation Xrotation
			JOINT spine_3
			{
				OFFSET -0.011330 0.052235 0.028447
				CHANNELS 3 Zrotation Yrotation Xrotation
				JOINT neck
				{
					OFFSET -0.012164 0.165167 -0.031615
					CHANNELS 3 Zrotation Yrotation Xrotation
					JOINT head
					{
						OFFSET 0.024783 0.160452 0.020737
						CHANNELS 3 Zrotation Yrotation Xrotation
						End Site
						{
							OFFSET 0.000000 0.000000 0.000000
						}
					}
				}
				JOINT left_collar
				{
					OFFSET 0.046364 0.084944 -0.007220
					CHANNELS 3 Zrotation Yrotation Xrotation
					JOINT left_shoulder
					{
						OFFSET 0.119239 0.057728 -0.015461
						CHANNELS 3 Zrotation Yrotation Xrotation
						JOINT left_elbow
						{
							OFFSET 0.254123 -0.072151 -0.042459
							CHANNELS 3 Zrotation Yrotation Xrotation
							JOINT left_wrist
							{
								OFFSET 0.251987 0.023221 -0.002472
								CHANNELS 3 Zrotation Yrotation Xrotation
								JOINT left_index_1
								{
									OFFSET 0.101902 -0.008688 0.019351
									CHANNELS 3 Zrotation Yrotation Xrotation
									JOINT left_index_2
									{
										OFFSET 0.030149 -0.011154 0.001151
										CHANNELS 3 Zrotation Yrotation Xrotation
										JOINT left_index_3
										{
											OFFSET 0.006504 -0.021577 -0.002433
											CHANNELS 3 Zrotation Yrotation Xrotation
											End Site
											{
												OFFSET 0.000000 0.000000 0.000000
											}
										}
									}
								}
								JOINT left_middle_1
								{
									OFFSET 0.109398 -0.006328 -0.003981
									CHANNELS 3 Zrotation Yrotation Xrotation
									JOINT left_middle_2
									{
										OFFSET 0.026472 -0.015218 -0.004641
										CHANNELS 3 Zrotation Yrotation Xrotation
										JOINT left_middle_3
										{
											OFFSET 0.005022 -0.023347 -0.001911
											CHANNELS 3 Zrotation Yrotation Xrotation
											End Site
											{
												OFFSET 0.000000 0.000000 0.000000
											}
										}
									}
								}
								JOINT left_pinky_1
								{
									OFFSET 0.084047 -0.014539 -0.043750
									CHANNELS 3 Zrotation Yrotation Xrotation
									JOINT left_pinky_2
									{
										OFFSET 0.012124 -0.014448 -0.005375
										CHANNELS 3 Zrotation Yrotation Xrotation
										JOINT left_pinky_3
										{
											OFFSET 0.003798 -0.018853 0.000167
											CHANNELS 3 Zrotation Yrotation Xrotation
											End Site
											{
												OFFSET 0.000000 0.000000 0.000000
											}
										}
									}
								}
								JOINT left_ring_1
								{
									OFFSET 0.097444 -0.009268 -0.027345
									CHANNELS 3 Zrotation Yrotation Xrotation
									JOINT left_ring_2
									{
										OFFSET 0.023561 -0.016057 -0.001895
										CHANNELS 3 Zrotation Yrotation Xrotation
										JOINT left_ring_3
										{
											OFFSET 0.004257 -0.023548 0.000814
											CHANNELS 3 Zrotation Yrotation Xrotation
											End Site
											{
												OFFSET 0.000000 0.000000 0.000000
											}
										}
									}
								}
								JOINT left_thumb_1
								{
									OFFSET 0.040636 -0.017977 0.025611
									CHANNELS 3 Zrotation Yrotation Xrotation
									JOINT left_thumb_2
									{
										OFFSET 0.021637 -0.017639 0.011623
										CHANNELS 3 Zrotation Yrotation Xrotation
										JOINT left_thumb_3
										{
											OFFSET 0.024002 -0.008356 0.006548
											CHANNELS 3 Zrotation Yrotation Xrotation
											End Site
											{
												OFFSET 0.000000 0.000000 0.000000
											}
										}
									}
								}
							}
						}
					}
				}
				JOINT right_collar
				{
					OFFSET -0.047695 0.084339 -0.013400
					CHANNELS 3 Zrotation Yrotation Xrotation
					JOINT right_shoulder
					{
						OFFSET -0.102578 0.053524 -0.012669
						CHANNELS 3 Zrotation Yrotation Xrotation
						JOINT right_elbow
						{
							OFFSET -0.271150 -0.036492 -0.026467
							CHANNELS 3 Zrotation Yrotation Xrotation
							JOINT right_wrist
							{
								OFFSET -0.249267 -0.004533 -0.015325
								CHANNELS 3 Zrotation Yrotation Xrotation
								JOINT right_index_1
								{
									OFFSET -0.099881 -0.011783 0.019600
									CHANNELS 3 Zrotation Yrotation Xrotation
									JOINT right_index_2
									{
										OFFSET -0.030148 -0.011154 0.001151
										CHANNELS 3 Zrotation Yrotation Xrotation
										JOINT right_index_3
										{
											OFFSET -0.006505 -0.021577 -0.002432
											CHANNELS 3 Zrotation Yrotation Xrotation
											End Site
											{
												OFFSET 0.000000 0.000000 0.000000
											}
										}
									}
								}
								JOINT right_middle_1
								{
									OFFSET -0.107376 -0.009422 -0.003734
									CHANNELS 3 Zrotation Yrotation Xrotation
									JOINT right_middle_2
									{
										OFFSET -0.026472 -0.015218 -0.004641
										CHANNELS 3 Zrotation Yrotation Xrotation
										JOINT right_middle_3
										{
											OFFSET -0.005022 -0.023347 -0.001911
											CHANNELS 3 Zrotation Yrotation Xrotation
											End Site
											{
												OFFSET 0.000000 0.000000 0.000000
											}
										}
									}
								}
								JOINT right_pinky_1
								{
									OFFSET -0.082027 -0.017634 -0.043503
									CHANNELS 3 Zrotation Yrotation Xrotation
									JOINT right_pinky_2
									{
										OFFSET -0.012123 -0.014448 -0.005374
										CHANNELS 3 Zrotation Yrotation Xrotation
										JOINT right_pinky_3
										{
											OFFSET -0.003798 -0.018852 0.000167
											CHANNELS 3 Zrotation Yrotation Xrotation
											End Site
											{
												OFFSET 0.000000 0.000000 0.000000
											}
										}
									}
								}
								JOINT right_ring_1
								{
									OFFSET -0.095423 -0.012362 -0.027099
									CHANNELS 3 Zrotation Yrotation Xrotation
									JOINT right_ring_2
									{
										OFFSET -0.023561 -0.016057 -0.001895
										CHANNELS 3 Zrotation Yrotation Xrotation
										JOINT right_ring_3
										{
											OFFSET -0.004257 -0.023548 0.000816
											CHANNELS 3 Zrotation Yrotation Xrotation
											End Site
											{
												OFFSET 0.000000 0.000000 0.000000
											}
										}
									}
								}
								JOINT right_thumb_1
								{
									OFFSET -0.038613 -0.021074 0.025861
									CHANNELS 3 Zrotation Yrotation Xrotation
									JOINT right_thumb_2
									{
										OFFSET -0.021636 -0.017639 0.011623
										CHANNELS 3 Zrotation Yrotation Xrotation
										JOINT right_thumb_3
										{
											OFFSET -0.024004 -0.008353 0.006547
											CHANNELS 3 Zrotation Yrotation Xrotation
											End Site
											{
												OFFSET 0.000000 0.000000 0.000000
											}
										}
									}
								}
							}
						}
					}
				}
			}
		}
	}
}
MOTION
Frames: 4
Frame Time: 0.050000
0.006652 0.947226 -0.009972 -1.024043 -6.332959 -0.773160 14.095084 -0.106975 -5.531619 -5.662632 0.035166 10.248319 -0.573629 5.916149 10.959234 0.000000 0.000000 0.000000 -8.077734 0.840143 -6.119290 6.118587 -0.310886 12.731153 1.746957 0.801450 3.544198 0.000000 0.000000 0.000000 2.254704 -0.579783 6.842135 -7.351561 -1.543811 -18.721352 7.189043 -1.517729 29.408810 2.412213 1.279759 -10.787759 0.000000 0.000000 0.000000 -3.857704 -2.329907 1.144600 -62.947445 -37.977747 1.314295 140.372012 -60.766452 -98.173604 1.944689 -3.603671 -27.174846 4.181533 4.078329 1.296188 27.229388 -1.028636 -9.641453 0.000000 0.000000 0.000000 -1.080378 -4.611522 -2.755381 19.793437 0.069441 1.469306 0.000000 0.000000 0.000000 11.767627 -13.930014 -20.442153 10.073075 2.863718 14.146296 0.000000 0.000000 0.000000 -1.044824 -7.576658 -5.410162 20.546622 1.991654 2.858212 0.000000 0.000000 0.000000 25.820447 11.293010 -5.694267 -23.449571 -7.681104 4.653731 0.000000 0.000000 0.000000 -2.513095 3.939178 2.302569 77.964178 7.753307 -7.439532 120.319086 62.588741 90.660855 6.479635 -12.991382 0.576835 0.828889 -1.942694 0.799138 -1.906900 -0.043790 0.822143 0.000000 0.000000 0.000000 1.576954 1.575520 -1.261970 -7.200321 0.014176 2.942999 0.000000 0.000000 0.000000 -14.833471 9.149606 -7.478444 -5.488329 -1.903222 10.341213 0.000000 0.000000 0.000000 -1.377464 2.848175 -2.023331 -9.482894 -0.737804 2.884044 0.000000 0.000000 0.000000 -2.557851 -3.300701 1.533449 1.868578 1.379705 0.061336 0.000000 0.000000 0.000000 
0.006622 0.946742 -0.011292 -1.016358 -6.710220 -0.666658 14.245966 -0.079403 -5.449520 -5.878484 0.087285 10.280047 -0.536542 5.578329 10.308668 0.000000 0.000000 0.000000 -8.326423 0.884198 -6.627628 6.399867 -0.339462 13.081228 2.022278 1.267432 3.602782 0.000000 0.000000 0.000000 2.111886 -0.605121 7.097486 -7.658592 -1.346830 -18.306221 7.234161 -2.010452 27.894453 2.514601 1.201561 -10.383781 0.000000 0.000000 0.000000 -3.887762 -1.965145 0.974792 -63.565508 -37.801568 1.691148 138.874571 -61.572935 -97.223975 3.223098 -4.073184 -27.177996 4.551731 2.733015 0.815756 22.239521 -0.693362 -6.227071 0.000000 0.000000 0.000000 -2.806406 -3.652507 -2.329784 21.211411 -0.070536 0.013635 0.000000 0.000000 0.000000 10.125037 -13.230650 -19.343499 8.525393 3.136971 14.170484 0.000000 0.000000 0.000000 -2.400097 -6.578467 -4.569267 21.754269 1.928880 1.585788 0.000000 0.000000 0.000000 23.912041 10.356631 -5.778500 -23.113674 -6.752996 4.648440 0.000000 0.000000 0.000000 -2.403137 4.285351 2.482018 77.677387 6.458652 -8.441221 119.615536 61.754087 88.469625 4.991009 -12.235442 1.871279 1.419335 -1.341939 0.558198 -5.526680 0.332100 0.962977 0.000000 0.000000 0.000000 2.153961 2.003009 -1.590313 -7.469598 -0.177500 4.480481 0.000000 0.000000 0.000000 -13.719056 9.144396 -7.350359 -4.429087 -1.926593 10.782139 0.000000 0.000000 0.000000 -1.106966 3.611926 -2.539532 -6.483071 -0.926081 4.980208 0.000000 0.000000 0.000000 -4.401130 -4.397808 1.686355 4.000583 3.796385 -0.026180 0.000000 0.000000 0.000000 
0.008271 0.947064 -0.011292 -0.932172 -6.784528 -0.693463 14.367627 -0.069363 -5.560475 -6.481940 0.197981 10.515671 -0.487675 5.695271 10.378732 0.000000 0.000000 0.000000 -8.691900 0.892462 -6.670026 6.953223 -0.413846 12.784223 1.800532 0.225181 4.448999 0.000000 0.000000 0.000000 1.818090 -0.642781 7.570380 -7.747700 -1.586015 -19.312515 7.703351 -1.405717 28.595119 2.558309 1.207230 -10.425416 0.000000 0.000000 0.000000 -4.208055 -3.138151 1.588047 -62.949971 -38.897157 1.719034 136.722377 -61.190029 -94.166718 2.436705 -3.724344 -28.392728 2.692608 2.699059 0.790214 23.903078 -0.786170 -9.524910 0.000000 0.000000 0.000000 -2.363327 -4.713694 -2.879121 16.162027 0.245540 0.520682 0.000000 0.000000 0.000000 8.314297 -12.490253 -18.264529 10.747403 2.228675 10.612671 0.000000 0.000000 0.000000 -4.168257 -6.219332 -4.139104 20.372029 1.671610 -1.143421 0.000000 0.000000 0.000000 20.866605 8.665957 -5.895692 -20.334225 -7.231248 3.417125 0.000000 0.000000 0.000000 -2.407267 3.439152 2.053747 77.458305 4.948992 -9.126438 120.010534 61.668213 88.902345 5.115300 -11.161592 1.445861 2.734100 -0.651976 0.316954 -9.706214 0.866401 0.734552 0.000000 0.000000 0.000000 1.522563 2.041850 -1.504947 -8.472510 -0.138158 5.040588 0.000000 0.000000 0.000000 -13.090730 7.923269 -5.606311 -2.203486 -2.126997 10.750684 0.000000 0.000000 0.000000 -0.294041 2.368842 -1.683550 -9.990152 -0.845082 4.497778 0.000000 0.000000 0.000000 -4.106978 -2.462853 -0.000365 5.102421 1.909879 0.835268 0.000000 0.000000 0.000000 
0.009066 0.946742 -0.011292 -1.098981 -5.809562 -0.288452 14.715393 -0.115720 -6.325337 -6.336538 0.151335 10.160006 -1.458430 4.765296 11.349788 0.000000 0.000000 0.000000 -8.196817 0.868596 -6.700295 6.539795 -0.383423 12.433075 1.216451 -0.758603 4.375362 0.000000 0.000000 0.000000 1.695136 -0.576266 6.919660 -7.188415 -1.500522 -18.431212 7.429291 -1.821193 28.267879 2.943276 1.188974 -10.489734 0.000000 0.000000 0.000000 -4.359288 -3.998338 2.042880 -62.794331 -39.087105 1.664925 136.506353 -61.034317 -93.797094 2.904973 -4.530715 -29.363497 3.433973 3.958763 1.203822 22.374356 -0.765301 -9.963427 0.000000 0.000000 0.000000 -2.749793 -3.951355 -2.478824 15.474438 0.290465 0.372790 0.000000 0.000000 0.000000 7.487645 -12.460939 -18.272549 10.876410 2.351286 11.194366 0.000000 0.000000 0.000000 -4.643639 -6.116800 -4.001316 20.270565 1.791418 0.043003 0.000000 0.000000 0.000000 22.099768 9.453475 -5.893707 -22.775611 -5.675183 4.650674 0.000000 0.000000 0.000000 -2.471466 2.291381 1.491059 77.398614 4.582791 -9.196817 119.595078 61.687134 88.423995 5.588399 -11.930433 1.161089 1.446155 -1.074144 0.456502 -6.650540 0.300529 1.511539 0.000000 0.000000 0.000000 0.753218 1.920732 -1.315892 -6.581641 -0.322926 4.601152 0.000000 0.000000 0.000000 -14.505538 8.190819 -5.623095 -0.546791 -2.261249 10.423906 0.000000 0.000000 0.000000 -1.209123 2.508824 -1.747052 -8.329923 -0.881766 4.475465 0.000000 0.000000 0.000000 -1.090258 -1.972032 1.127417 -1.443318 0.105691 -0.437916 0.000000 0.000000 0.000000 
